<mxfile host="app.diagrams.net" modified="2021-08-21T16:15:48.181Z" agent="5.0 (Windows)" etag="yq7vCQRPLa8NzncdbPWC" version="14.9.7" type="github">
  <diagram name="main" id="74b105a0-9070-1c63-61bc-23e55f88626e">
    <mxGraphModel dx="2791.5" dy="1803" grid="1" gridSize="10" guides="1" tooltips="1" connect="1" arrows="1" fold="1" page="1" pageScale="1.5" pageWidth="1169" pageHeight="826" background="none" math="0" shadow="0">
      <root>
        <mxCell id="0" style=";html=1;" />
        <mxCell id="1" style=";html=1;" parent="0" />
        <mxCell id="T3RXGcNW6fJ_l2nOvS4A-44" style="edgeStyle=orthogonalEdgeStyle;rounded=0;orthogonalLoop=1;jettySize=auto;html=1;entryX=0;entryY=0.5;entryDx=0;entryDy=0;entryPerimeter=0;" parent="1" source="T3RXGcNW6fJ_l2nOvS4A-3" target="T3RXGcNW6fJ_l2nOvS4A-48" edge="1">
          <mxGeometry relative="1" as="geometry" />
        </mxCell>
        <mxCell id="T3RXGcNW6fJ_l2nOvS4A-3" value="Вход в бота (телеграм)" style="strokeWidth=2;html=1;shape=mxgraph.flowchart.start_1;whiteSpace=wrap;" parent="1" vertex="1">
          <mxGeometry x="-610" y="70" width="100" height="60" as="geometry" />
        </mxCell>
        <mxCell id="T3RXGcNW6fJ_l2nOvS4A-18" style="edgeStyle=orthogonalEdgeStyle;rounded=0;orthogonalLoop=1;jettySize=auto;html=1;entryX=0.75;entryY=1;entryDx=0;entryDy=0;" parent="1" source="T3RXGcNW6fJ_l2nOvS4A-4" target="T3RXGcNW6fJ_l2nOvS4A-5" edge="1">
          <mxGeometry relative="1" as="geometry">
            <mxPoint x="-140" y="150" as="targetPoint" />
            <Array as="points">
              <mxPoint x="-205" y="170" />
              <mxPoint x="-205" y="170" />
            </Array>
          </mxGeometry>
        </mxCell>
        <mxCell id="T3RXGcNW6fJ_l2nOvS4A-4" value="Хранилище чатов" style="strokeWidth=2;html=1;shape=mxgraph.flowchart.database;whiteSpace=wrap;" parent="1" vertex="1">
          <mxGeometry x="-275" y="220" width="90" height="100" as="geometry" />
        </mxCell>
        <mxCell id="T3RXGcNW6fJ_l2nOvS4A-8" style="edgeStyle=orthogonalEdgeStyle;rounded=0;orthogonalLoop=1;jettySize=auto;html=1;entryX=0;entryY=0.5;entryDx=0;entryDy=0;entryPerimeter=0;" parent="1" source="T3RXGcNW6fJ_l2nOvS4A-5" target="T3RXGcNW6fJ_l2nOvS4A-7" edge="1">
          <mxGeometry relative="1" as="geometry" />
        </mxCell>
        <mxCell id="T3RXGcNW6fJ_l2nOvS4A-12" style="edgeStyle=orthogonalEdgeStyle;rounded=0;orthogonalLoop=1;jettySize=auto;html=1;" parent="1" source="T3RXGcNW6fJ_l2nOvS4A-5" target="T3RXGcNW6fJ_l2nOvS4A-4" edge="1">
          <mxGeometry relative="1" as="geometry">
            <Array as="points">
              <mxPoint x="-250" y="190" />
              <mxPoint x="-250" y="190" />
            </Array>
          </mxGeometry>
        </mxCell>
        <mxCell id="T3RXGcNW6fJ_l2nOvS4A-5" value="Запрос чата" style="rounded=1;whiteSpace=wrap;html=1;absoluteArcSize=1;arcSize=14;strokeWidth=2;" parent="1" vertex="1">
          <mxGeometry x="-280" y="50" width="100" height="100" as="geometry" />
        </mxCell>
        <mxCell id="T3RXGcNW6fJ_l2nOvS4A-61" value="Нет" style="edgeStyle=orthogonalEdgeStyle;rounded=0;orthogonalLoop=1;jettySize=auto;html=1;entryX=0;entryY=0.25;entryDx=0;entryDy=0;" parent="1" source="T3RXGcNW6fJ_l2nOvS4A-7" target="T3RXGcNW6fJ_l2nOvS4A-62" edge="1">
          <mxGeometry relative="1" as="geometry">
            <mxPoint x="-90" y="320" as="targetPoint" />
            <Array as="points">
              <mxPoint x="-80" y="305" />
            </Array>
          </mxGeometry>
        </mxCell>
        <mxCell id="T3RXGcNW6fJ_l2nOvS4A-64" value="Да" style="edgeStyle=orthogonalEdgeStyle;rounded=0;orthogonalLoop=1;jettySize=auto;html=1;" parent="1" source="T3RXGcNW6fJ_l2nOvS4A-7" target="T3RXGcNW6fJ_l2nOvS4A-37" edge="1">
          <mxGeometry relative="1" as="geometry" />
        </mxCell>
        <mxCell id="T3RXGcNW6fJ_l2nOvS4A-7" value="&lt;div&gt;Чат&lt;/div&gt;&lt;div&gt;существует?&lt;/div&gt;" style="strokeWidth=2;html=1;shape=mxgraph.flowchart.decision;whiteSpace=wrap;" parent="1" vertex="1">
          <mxGeometry x="-130" y="50" width="100" height="100" as="geometry" />
        </mxCell>
        <mxCell id="T3RXGcNW6fJ_l2nOvS4A-77" value="Выбрано действие завершения сценария" style="edgeStyle=orthogonalEdgeStyle;rounded=0;orthogonalLoop=1;jettySize=auto;html=1;entryX=0;entryY=0.5;entryDx=0;entryDy=0;entryPerimeter=0;exitX=1;exitY=0.5;exitDx=0;exitDy=0;" parent="1" source="T3RXGcNW6fJ_l2nOvS4A-13" target="T3RXGcNW6fJ_l2nOvS4A-22" edge="1">
          <mxGeometry x="-0.037" y="-10" relative="1" as="geometry">
            <mxPoint x="1710" y="160" as="targetPoint" />
            <Array as="points" />
            <mxPoint as="offset" />
          </mxGeometry>
        </mxCell>
        <mxCell id="T3RXGcNW6fJ_l2nOvS4A-84" style="edgeStyle=orthogonalEdgeStyle;rounded=0;orthogonalLoop=1;jettySize=auto;html=1;entryX=0;entryY=0.5;entryDx=0;entryDy=0;exitX=1;exitY=0.5;exitDx=0;exitDy=0;" parent="1" source="T3RXGcNW6fJ_l2nOvS4A-99" target="T3RXGcNW6fJ_l2nOvS4A-82" edge="1">
          <mxGeometry relative="1" as="geometry">
            <mxPoint x="1180" y="100" as="sourcePoint" />
            <Array as="points">
              <mxPoint x="1220" y="100" />
              <mxPoint x="1220" y="100" />
            </Array>
          </mxGeometry>
        </mxCell>
        <mxCell id="T3RXGcNW6fJ_l2nOvS4A-104" style="edgeStyle=orthogonalEdgeStyle;rounded=0;orthogonalLoop=1;jettySize=auto;html=1;entryX=0.577;entryY=1;entryDx=0;entryDy=0;entryPerimeter=0;" parent="1" source="T3RXGcNW6fJ_l2nOvS4A-13" target="T3RXGcNW6fJ_l2nOvS4A-56" edge="1">
          <mxGeometry relative="1" as="geometry">
            <Array as="points">
              <mxPoint x="1580" y="190" />
              <mxPoint x="974" y="190" />
            </Array>
          </mxGeometry>
        </mxCell>
        <mxCell id="T3RXGcNW6fJ_l2nOvS4A-13" value="Получение действия" style="rounded=1;whiteSpace=wrap;html=1;absoluteArcSize=1;arcSize=14;strokeWidth=2;" parent="1" vertex="1">
          <mxGeometry x="1530" y="50" width="100" height="100" as="geometry" />
        </mxCell>
        <mxCell id="T3RXGcNW6fJ_l2nOvS4A-46" style="edgeStyle=orthogonalEdgeStyle;rounded=0;orthogonalLoop=1;jettySize=auto;html=1;entryX=0.5;entryY=1;entryDx=0;entryDy=0;entryPerimeter=0;" parent="1" source="T3RXGcNW6fJ_l2nOvS4A-22" target="T3RXGcNW6fJ_l2nOvS4A-37" edge="1">
          <mxGeometry relative="1" as="geometry">
            <mxPoint x="70" y="180" as="targetPoint" />
            <Array as="points">
              <mxPoint x="1950" y="210" />
              <mxPoint x="80" y="210" />
            </Array>
          </mxGeometry>
        </mxCell>
        <mxCell id="T3RXGcNW6fJ_l2nOvS4A-22" value="Завершение диалога" style="strokeWidth=2;html=1;shape=mxgraph.flowchart.terminator;whiteSpace=wrap;" parent="1" vertex="1">
          <mxGeometry x="1900" y="70" width="100" height="60" as="geometry" />
        </mxCell>
        <mxCell id="T3RXGcNW6fJ_l2nOvS4A-70" style="edgeStyle=orthogonalEdgeStyle;rounded=0;orthogonalLoop=1;jettySize=auto;html=1;entryX=0;entryY=0.5;entryDx=0;entryDy=0;" parent="1" source="T3RXGcNW6fJ_l2nOvS4A-34" target="T3RXGcNW6fJ_l2nOvS4A-69" edge="1">
          <mxGeometry relative="1" as="geometry" />
        </mxCell>
        <mxCell id="T3RXGcNW6fJ_l2nOvS4A-34" value="Ввод сценария для бота" style="html=1;strokeWidth=2;shape=manualInput;whiteSpace=wrap;rounded=1;size=26;arcSize=11;" parent="1" vertex="1">
          <mxGeometry x="600" y="60" width="100" height="80" as="geometry" />
        </mxCell>
        <mxCell id="T3RXGcNW6fJ_l2nOvS4A-73" style="edgeStyle=orthogonalEdgeStyle;rounded=0;orthogonalLoop=1;jettySize=auto;html=1;entryX=0;entryY=0.5;entryDx=0;entryDy=0;" parent="1" source="T3RXGcNW6fJ_l2nOvS4A-37" target="T3RXGcNW6fJ_l2nOvS4A-72" edge="1">
          <mxGeometry relative="1" as="geometry" />
        </mxCell>
        <mxCell id="T3RXGcNW6fJ_l2nOvS4A-37" value="Показать приветствие" style="strokeWidth=2;html=1;shape=mxgraph.flowchart.display;whiteSpace=wrap;" parent="1" vertex="1">
          <mxGeometry x="30" y="70" width="100" height="60" as="geometry" />
        </mxCell>
        <mxCell id="T3RXGcNW6fJ_l2nOvS4A-45" style="edgeStyle=orthogonalEdgeStyle;rounded=0;orthogonalLoop=1;jettySize=auto;html=1;entryX=0.005;entryY=0.82;entryDx=0;entryDy=0;entryPerimeter=0;" parent="1" source="T3RXGcNW6fJ_l2nOvS4A-42" target="T3RXGcNW6fJ_l2nOvS4A-62" edge="1">
          <mxGeometry relative="1" as="geometry">
            <Array as="points">
              <mxPoint x="-120" y="410" />
              <mxPoint x="-120" y="362" />
            </Array>
          </mxGeometry>
        </mxCell>
        <mxCell id="T3RXGcNW6fJ_l2nOvS4A-42" value="/start (Инициализация чата)" style="html=1;strokeWidth=2;shape=manualInput;whiteSpace=wrap;rounded=1;size=26;arcSize=11;" parent="1" vertex="1">
          <mxGeometry x="-275" y="360" width="100" height="90" as="geometry" />
        </mxCell>
        <mxCell id="T3RXGcNW6fJ_l2nOvS4A-58" value="Да" style="edgeStyle=orthogonalEdgeStyle;rounded=0;orthogonalLoop=1;jettySize=auto;html=1;entryX=0;entryY=0.5;entryDx=0;entryDy=0;" parent="1" source="T3RXGcNW6fJ_l2nOvS4A-48" target="T3RXGcNW6fJ_l2nOvS4A-5" edge="1">
          <mxGeometry relative="1" as="geometry">
            <mxPoint x="-290" y="100" as="targetPoint" />
            <Array as="points" />
          </mxGeometry>
        </mxCell>
        <mxCell id="T3RXGcNW6fJ_l2nOvS4A-65" value="Нет" style="edgeStyle=orthogonalEdgeStyle;rounded=0;orthogonalLoop=1;jettySize=auto;html=1;entryX=0;entryY=0.75;entryDx=0;entryDy=0;" parent="1" source="T3RXGcNW6fJ_l2nOvS4A-48" target="T3RXGcNW6fJ_l2nOvS4A-42" edge="1">
          <mxGeometry relative="1" as="geometry">
            <Array as="points">
              <mxPoint x="-395" y="428" />
            </Array>
          </mxGeometry>
        </mxCell>
        <mxCell id="T3RXGcNW6fJ_l2nOvS4A-48" value="&lt;div&gt;Инициализация&lt;/div&gt;&lt;div&gt;чата&lt;br&gt;&lt;/div&gt;&lt;div&gt;уже прошла?&lt;/div&gt;" style="strokeWidth=2;html=1;shape=mxgraph.flowchart.decision;whiteSpace=wrap;" parent="1" vertex="1">
          <mxGeometry x="-460" y="30" width="130" height="140" as="geometry" />
        </mxCell>
        <mxCell id="T3RXGcNW6fJ_l2nOvS4A-55" style="edgeStyle=orthogonalEdgeStyle;rounded=0;orthogonalLoop=1;jettySize=auto;html=1;entryX=0;entryY=0.5;entryDx=0;entryDy=0;" parent="1" source="T3RXGcNW6fJ_l2nOvS4A-53" target="T3RXGcNW6fJ_l2nOvS4A-34" edge="1">
          <mxGeometry relative="1" as="geometry" />
        </mxCell>
        <mxCell id="T3RXGcNW6fJ_l2nOvS4A-53" value="Показать доступные сценарии" style="strokeWidth=2;html=1;shape=mxgraph.flowchart.display;whiteSpace=wrap;" parent="1" vertex="1">
          <mxGeometry x="470" y="70" width="100" height="60" as="geometry" />
        </mxCell>
        <mxCell id="T3RXGcNW6fJ_l2nOvS4A-102" style="edgeStyle=orthogonalEdgeStyle;rounded=0;orthogonalLoop=1;jettySize=auto;html=1;" parent="1" source="T3RXGcNW6fJ_l2nOvS4A-56" target="T3RXGcNW6fJ_l2nOvS4A-99" edge="1">
          <mxGeometry relative="1" as="geometry" />
        </mxCell>
        <mxCell id="T3RXGcNW6fJ_l2nOvS4A-56" value="&lt;div&gt;Показ доступных&lt;/div&gt;&lt;div&gt;действий&lt;br&gt;&lt;/div&gt;" style="strokeWidth=2;html=1;shape=mxgraph.flowchart.display;whiteSpace=wrap;" parent="1" vertex="1">
          <mxGeometry x="910" y="70" width="110" height="60" as="geometry" />
        </mxCell>
        <mxCell id="T3RXGcNW6fJ_l2nOvS4A-63" style="edgeStyle=orthogonalEdgeStyle;rounded=0;orthogonalLoop=1;jettySize=auto;html=1;entryX=0.3;entryY=1;entryDx=0;entryDy=0;entryPerimeter=0;" parent="1" source="T3RXGcNW6fJ_l2nOvS4A-62" target="T3RXGcNW6fJ_l2nOvS4A-37" edge="1">
          <mxGeometry relative="1" as="geometry">
            <Array as="points">
              <mxPoint x="60" y="320" />
            </Array>
          </mxGeometry>
        </mxCell>
        <mxCell id="T3RXGcNW6fJ_l2nOvS4A-79" style="edgeStyle=orthogonalEdgeStyle;rounded=0;orthogonalLoop=1;jettySize=auto;html=1;entryX=1;entryY=0.5;entryDx=0;entryDy=0;entryPerimeter=0;" parent="1" source="T3RXGcNW6fJ_l2nOvS4A-62" target="T3RXGcNW6fJ_l2nOvS4A-4" edge="1">
          <mxGeometry relative="1" as="geometry">
            <Array as="points">
              <mxPoint x="-122" y="340" />
              <mxPoint x="-122" y="270" />
            </Array>
          </mxGeometry>
        </mxCell>
        <mxCell id="T3RXGcNW6fJ_l2nOvS4A-95" value="Сохранить" style="edgeLabel;html=1;align=center;verticalAlign=middle;resizable=0;points=[];rotation=-90;" parent="T3RXGcNW6fJ_l2nOvS4A-79" vertex="1" connectable="0">
          <mxGeometry x="0.5189" y="2" relative="1" as="geometry">
            <mxPoint x="8" y="38" as="offset" />
          </mxGeometry>
        </mxCell>
        <mxCell id="T3RXGcNW6fJ_l2nOvS4A-62" value="Создать чат" style="rounded=1;whiteSpace=wrap;html=1;absoluteArcSize=1;arcSize=14;strokeWidth=2;" parent="1" vertex="1">
          <mxGeometry x="-60" y="280" width="100" height="100" as="geometry" />
        </mxCell>
        <mxCell id="T3RXGcNW6fJ_l2nOvS4A-68" style="edgeStyle=orthogonalEdgeStyle;rounded=0;orthogonalLoop=1;jettySize=auto;html=1;" parent="1" source="T3RXGcNW6fJ_l2nOvS4A-66" target="T3RXGcNW6fJ_l2nOvS4A-53" edge="1">
          <mxGeometry relative="1" as="geometry" />
        </mxCell>
        <mxCell id="T3RXGcNW6fJ_l2nOvS4A-97" style="edgeStyle=orthogonalEdgeStyle;rounded=0;orthogonalLoop=1;jettySize=auto;html=1;entryX=0.339;entryY=0.978;entryDx=0;entryDy=0;entryPerimeter=0;" parent="1" source="T3RXGcNW6fJ_l2nOvS4A-66" target="T3RXGcNW6fJ_l2nOvS4A-96" edge="1">
          <mxGeometry relative="1" as="geometry">
            <Array as="points">
              <mxPoint x="376" y="40" />
              <mxPoint x="376" y="40" />
            </Array>
          </mxGeometry>
        </mxCell>
        <mxCell id="T3RXGcNW6fJ_l2nOvS4A-66" value="Запросить доступные сценарии для диалога" style="rounded=1;whiteSpace=wrap;html=1;absoluteArcSize=1;arcSize=14;strokeWidth=2;" parent="1" vertex="1">
          <mxGeometry x="340" y="50" width="100" height="100" as="geometry" />
        </mxCell>
        <mxCell id="T3RXGcNW6fJ_l2nOvS4A-71" style="edgeStyle=orthogonalEdgeStyle;rounded=0;orthogonalLoop=1;jettySize=auto;html=1;entryX=0;entryY=0.5;entryDx=0;entryDy=0;entryPerimeter=0;" parent="1" source="T3RXGcNW6fJ_l2nOvS4A-69" target="T3RXGcNW6fJ_l2nOvS4A-56" edge="1">
          <mxGeometry relative="1" as="geometry" />
        </mxCell>
        <mxCell id="T3RXGcNW6fJ_l2nOvS4A-69" value="Получение доступных дальнейших действий в сценарии" style="rounded=1;whiteSpace=wrap;html=1;absoluteArcSize=1;arcSize=14;strokeWidth=2;" parent="1" vertex="1">
          <mxGeometry x="770" y="50" width="100" height="100" as="geometry" />
        </mxCell>
        <mxCell id="T3RXGcNW6fJ_l2nOvS4A-74" style="edgeStyle=orthogonalEdgeStyle;rounded=0;orthogonalLoop=1;jettySize=auto;html=1;entryX=0;entryY=0.5;entryDx=0;entryDy=0;" parent="1" source="T3RXGcNW6fJ_l2nOvS4A-72" target="T3RXGcNW6fJ_l2nOvS4A-66" edge="1">
          <mxGeometry relative="1" as="geometry" />
        </mxCell>
        <mxCell id="T3RXGcNW6fJ_l2nOvS4A-72" value="Запуск нового диалога с ботом" style="rounded=1;whiteSpace=wrap;html=1;absoluteArcSize=1;arcSize=14;strokeWidth=2;" parent="1" vertex="1">
          <mxGeometry x="180" y="50" width="100" height="100" as="geometry" />
        </mxCell>
        <mxCell id="T3RXGcNW6fJ_l2nOvS4A-86" style="edgeStyle=orthogonalEdgeStyle;rounded=0;orthogonalLoop=1;jettySize=auto;html=1;entryX=0.5;entryY=0;entryDx=0;entryDy=0;entryPerimeter=0;" parent="1" source="T3RXGcNW6fJ_l2nOvS4A-82" target="T3RXGcNW6fJ_l2nOvS4A-22" edge="1">
          <mxGeometry relative="1" as="geometry">
            <Array as="points">
              <mxPoint x="1280" y="30" />
              <mxPoint x="1950" y="30" />
            </Array>
          </mxGeometry>
        </mxCell>
        <mxCell id="X-3Gnh1YZN1sCy7n7scr-2" value="Автозавершение" style="edgeLabel;html=1;align=center;verticalAlign=middle;resizable=0;points=[];" vertex="1" connectable="0" parent="T3RXGcNW6fJ_l2nOvS4A-86">
          <mxGeometry x="-0.2041" y="-2" relative="1" as="geometry">
            <mxPoint x="6" as="offset" />
          </mxGeometry>
        </mxCell>
        <mxCell id="T3RXGcNW6fJ_l2nOvS4A-87" value="Уточнение дальнейших действий" style="edgeStyle=orthogonalEdgeStyle;rounded=0;orthogonalLoop=1;jettySize=auto;html=1;entryX=0;entryY=0.5;entryDx=0;entryDy=0;" parent="1" source="T3RXGcNW6fJ_l2nOvS4A-82" target="T3RXGcNW6fJ_l2nOvS4A-13" edge="1">
          <mxGeometry y="10" relative="1" as="geometry">
            <Array as="points">
              <mxPoint x="1480" y="100" />
              <mxPoint x="1480" y="100" />
            </Array>
            <mxPoint x="1640" y="150" as="targetPoint" />
            <mxPoint as="offset" />
          </mxGeometry>
        </mxCell>
        <mxCell id="T3RXGcNW6fJ_l2nOvS4A-82" value="Выполнение сценария" style="rounded=1;whiteSpace=wrap;html=1;absoluteArcSize=1;arcSize=14;strokeWidth=2;" parent="1" vertex="1">
          <mxGeometry x="1230" y="50" width="100" height="100" as="geometry" />
        </mxCell>
        <mxCell id="T3RXGcNW6fJ_l2nOvS4A-98" style="edgeStyle=orthogonalEdgeStyle;rounded=0;orthogonalLoop=1;jettySize=auto;html=1;entryX=0.665;entryY=-0.01;entryDx=0;entryDy=0;entryPerimeter=0;" parent="1" source="T3RXGcNW6fJ_l2nOvS4A-96" target="T3RXGcNW6fJ_l2nOvS4A-66" edge="1">
          <mxGeometry relative="1" as="geometry">
            <Array as="points">
              <mxPoint x="407" y="25" />
            </Array>
          </mxGeometry>
        </mxCell>
        <mxCell id="T3RXGcNW6fJ_l2nOvS4A-96" value="Хранилище сценариев" style="strokeWidth=2;html=1;shape=mxgraph.flowchart.database;whiteSpace=wrap;" parent="1" vertex="1">
          <mxGeometry x="345" y="-90" width="90" height="90" as="geometry" />
        </mxCell>
        <mxCell id="T3RXGcNW6fJ_l2nOvS4A-99" value="Ввод действия или данных для дальнейшей обработки" style="html=1;strokeWidth=2;shape=manualInput;whiteSpace=wrap;rounded=1;size=26;arcSize=11;" parent="1" vertex="1">
          <mxGeometry x="1050" y="50" width="100" height="100" as="geometry" />
        </mxCell>
      </root>
    </mxGraphModel>
  </diagram>
</mxfile>
